<?xml version="1.0" encoding="UTF-8" standalone="no"?>
<!-- Created with Inkscape (http://www.inkscape.org/) -->

<svg
   width="1023.9999"
   height="1023.9999"
   viewBox="0 0 270.93331 270.93331"
   version="1.1"
   id="svg1"
   xmlns="http://www.w3.org/2000/svg"
   xmlns:svg="http://www.w3.org/2000/svg">
  <defs
     id="defs1" />
  <g
     id="layer1">
    <path
       id="path9"
       style="stroke-width:5.29167;stroke-linecap:round;stroke-linejoin:bevel;stroke-miterlimit:2"
       d="M 131.58148,56.631219 A 35.866524,35.866524 0 0 0 96.632707,84.217132 38.383472,38.383472 0 0 0 71.179997,74.250298 38.383472,38.383472 0 0 0 32.720846,112.47329 v 0.33641 a 38.383472,38.383472 0 0 0 2.276864,12.12898 42.158897,42.158897 0 0 0 -31.2218666,40.3748 v 0.36948 a 42.158897,42.158897 0 0 0 42.2599526,41.9654 42.158897,42.158897 0 0 0 36.681999,-21.62607 37.754234,37.754234 0 0 0 31.894185,17.85059 37.754234,37.754234 0 0 0 32.81091,-19.27996 38.383526,41.529659 0 0 0 30.74335,16.7628 38.383526,41.529659 0 0 0 23.63318,-8.924 39.012711,39.012711 0 0 0 25.74933,9.85366 39.012711,39.012711 0 0 0 38.91907,-39.02087 39.012711,39.012711 0 0 0 -34.68573,-38.51755 40.271183,40.271183 0 0 0 4.81107,-19.0438 40.271183,40.271183 0 0 0 -40.19134,-40.262143 40.271183,40.271183 0 0 0 -31.36863,14.945858 35.866524,35.866524 0 0 0 -33.45171,-23.755656 z m 29.5982,54.283511 h 20.57497 l -15.42645,25.71419 15.42645,25.70489 h -20.57497 c 1.42026,-1.41403 2.13062,-3.17686 2.13062,-5.28856 0,-3.84966 -2.42351,-8.94199 -7.26984,-15.27711 l -5.13923,20.78995 -20.57497,-0.21497 15.42697,-25.7142 -15.42697,-25.70489 h 20.57497 c -1.42026,1.41403 -2.1301,3.17686 -2.1301,5.28856 0,3.84966 2.42299,8.94199 7.26933,15.27711 z m -76.656828,0.009 h 41.075538 v 15.39854 l -13.04417,-5.1201 c -1.42026,5.88661 -2.1301,11.97866 -2.1301,18.2764 0,9.05729 1.62864,16.67863 4.88652,22.86425 H 94.744967 c 3.257882,-6.18562 4.887038,-13.80696 4.887038,-22.86425 0,-6.29774 -0.71035,-12.38979 -2.130617,-18.2764 l -12.978536,5.1201 z" />
  </g>
</svg>
