<?xml version="1.0" encoding="UTF-8" standalone="no"?>
<!-- Created with Inkscape (http://www.inkscape.org/) -->

<svg
   width="1024"
   height="1024"
   viewBox="0 0 270.93333 270.93333"
   version="1.1"
   id="svg1"
   inkscape:version="1.3.1 (91b66b0, 2023-11-16)"
   sodipodi:docname="icon.svg"
   inkscape:export-filename="icon_outlined.png"
   inkscape:export-xdpi="96"
   inkscape:export-ydpi="96"
   xmlns:inkscape="http://www.inkscape.org/namespaces/inkscape"
   xmlns:sodipodi="http://sodipodi.sourceforge.net/DTD/sodipodi-0.dtd"
   xmlns="http://www.w3.org/2000/svg"
   xmlns:svg="http://www.w3.org/2000/svg">
  <sodipodi:namedview
     id="namedview1"
     pagecolor="#ffffff"
     bordercolor="#666666"
     borderopacity="1.0"
     inkscape:showpageshadow="2"
     inkscape:pageopacity="0.0"
     inkscape:pagecheckerboard="0"
     inkscape:deskcolor="#d1d1d1"
     inkscape:document-units="mm"
     inkscape:zoom="0.2102413"
     inkscape:cx="368.62405"
     inkscape:cy="64.211931"
     inkscape:window-width="1160"
     inkscape:window-height="750"
     inkscape:window-x="0"
     inkscape:window-y="37"
     inkscape:window-maximized="0"
     inkscape:current-layer="layer1" />
  <defs
     id="defs1" />
  <g
     inkscape:label="Layer 1"
     inkscape:groupmode="layer"
     id="layer1">
    <path
       id="path9"
       style="stroke-width:5.29167;stroke-linecap:round;stroke-linejoin:bevel;stroke-miterlimit:2"
       d="m 127.80606,-318.3942 a 35.866524,35.866524 0 0 0 -34.948777,27.58591 38.383472,38.383472 0 0 0 -25.45271,-9.96684 38.383472,38.383472 0 0 0 -38.459151,38.223 v 0.33641 a 38.383472,38.383472 0 0 0 2.276864,12.12898 42.158897,42.158897 0 0 0 -31.22186632881,40.3748 v 0.36948 a 42.158897,42.158897 0 0 0 42.25995232881,41.9654 42.158897,42.158897 0 0 0 36.681999,-21.62607 37.754234,37.754234 0 0 0 31.894189,17.85059 37.754234,37.754234 0 0 0 32.81091,-19.27996 38.383526,41.529659 0 0 0 30.74335,16.7628 38.383526,41.529659 0 0 0 23.63318,-8.924 39.012711,39.012711 0 0 0 25.74933,9.85366 39.012711,39.012711 0 0 0 38.91907,-39.02087 39.012711,39.012711 0 0 0 -34.68573,-38.51755 40.271183,40.271183 0 0 0 4.81107,-19.0438 40.271183,40.271183 0 0 0 -40.19134,-40.26215 40.271183,40.271183 0 0 0 -31.36863,14.94586 35.866524,35.866524 0 0 0 -33.45171,-23.75565 z m 29.5982,54.28351 h 20.57497 l -15.42645,25.71419 15.42645,25.70489 h -20.57497 c 1.42026,-1.41403 2.13062,-3.17686 2.13062,-5.28856 0,-3.84966 -2.42351,-8.94199 -7.26984,-15.27711 l -5.13923,20.78995 -20.57497,-0.21497 15.42697,-25.7142 -15.42697,-25.70489 h 20.57497 c -1.42026,1.41403 -2.1301,3.17686 -2.1301,5.28856 0,3.84966 2.42299,8.94199 7.26933,15.27711 z m -76.656832,0.009 h 41.075542 v 15.39854 l -13.04417,-5.1201 c -1.42026,5.88661 -2.1301,11.97866 -2.1301,18.2764 0,9.05729 1.62864,16.67863 4.88652,22.86425 H 90.969543 c 3.257882,-6.18562 4.887038,-13.80696 4.887038,-22.86425 0,-6.29774 -0.71035,-12.38979 -2.130617,-18.2764 l -12.978536,5.1201 z" />
    <text
       xml:space="preserve"
       style="font-size:50.8px;line-height:1.25;font-family:sans-serif;stroke-width:0.264583;stroke:none"
       x="10.067796"
       y="234.07626"
       id="text10"><tspan
         sodipodi:role="line"
         id="tspan10"
         style="font-style:normal;font-variant:normal;font-weight:normal;font-stretch:normal;font-family:Etxeak;-inkscape-font-specification:Etxeak;stroke-width:0.264583;stroke:none"
         x="10.067796"
         y="234.07626">txirimiri</tspan></text>
    <path
       id="path11"
       style="stroke-width:5.29167;stroke-linecap:round;stroke-linejoin:bevel;stroke-miterlimit:2;stroke:none"
       d="M 132.83995 26.427844 A 35.866524 35.866524 0 0 0 97.891182 54.013757 A 38.383472 38.383472 0 0 0 72.438472 44.046924 A 38.383472 38.383472 0 0 0 33.979321 82.269914 L 33.979321 82.606327 A 38.383472 38.383472 0 0 0 36.256185 94.735303 A 42.158897 42.158897 0 0 0 5.034318 135.1101 L 5.034318 135.47959 A 42.158897 42.158897 0 0 0 47.294271 177.44498 A 42.158897 42.158897 0 0 0 83.97627 155.81891 A 37.754234 37.754234 0 0 0 115.87045 173.6695 A 37.754234 37.754234 0 0 0 148.68136 154.38954 A 38.383526 41.529659 0 0 0 179.42471 171.15234 A 38.383526 41.529659 0 0 0 203.05789 162.22834 A 39.012711 39.012711 0 0 0 228.80722 172.082 A 39.012711 39.012711 0 0 0 267.72629 133.06113 A 39.012711 39.012711 0 0 0 233.04056 94.543583 A 40.271183 40.271183 0 0 0 237.85163 75.499784 A 40.271183 40.271183 0 0 0 197.66029 35.237126 A 40.271183 40.271183 0 0 0 166.29166 50.1835 A 35.866524 35.866524 0 0 0 132.83995 26.427844 z " />
    <text
       xml:space="preserve"
       style="font-size:69.1444px;line-height:1.25;font-family:sans-serif;fill:#6699ff;stroke-width:0.264583"
       x="83.059326"
       y="-61.665249"
       id="text12"><tspan
         sodipodi:role="line"
         id="tspan12"
         style="font-style:normal;font-variant:normal;font-weight:normal;font-stretch:normal;font-size:69.1444px;font-family:Etxeak;-inkscape-font-specification:Etxeak;fill:#6699ff;stroke-width:0.264583"
         x="83.059326"
         y="-61.665249">tx</tspan></text>
  </g>
</svg>
